<?xml version="1.0" encoding="UTF-8"?>
<svg width="2653px" height="572px" viewBox="0 0 2653 572" version="1.1" xmlns="http://www.w3.org/2000/svg" xmlns:xlink="http://www.w3.org/1999/xlink">
    <!-- Generator: Sketch 41.1 (35376) - http://www.bohemiancoding.com/sketch -->
    <title>full logo</title>
    <desc>Created with Sketch.</desc>
    <defs></defs>
    <g id="Wireframes-Desktop" stroke="none" stroke-width="1" fill="none" fill-rule="evenodd">
        <g id="full-logo">
            <g id="Group" transform="translate(3.000000, 3.000000)">
                <g id="Lines" transform="translate(47.000000, 168.000000)" stroke="#B0C0D2" stroke-width="5" stroke-linecap="square">
                    <path d="M35.5,0.5 L481.5,113.5" id="Line"></path>
                    <path d="M17.5,35.5 L421.5,279.5" id="Line-Copy"></path>
                    <path d="M4.5,74.5 L195.5,355.5" id="Line-Copy-2"></path>
                    <path d="M0.5,99.5 L443.5,243.5" id="Line-Copy-3"></path>
                    <path d="M44.5,256.5 L345.5,341.5" id="Line-Copy-4"></path>
                </g>
                <g id="Circles" stroke="#4990E2" stroke-width="5">
                    <ellipse id="Oval-5" cx="272.22885" cy="301.15708" rx="264.719089" ry="264.84292"></ellipse>
                    <ellipse id="Oval-5-Copy" cx="308.52603" cy="301.15708" rx="264.719089" ry="264.84292"></ellipse>
                    <ellipse id="Oval-5-Copy-2" cx="289.751627" cy="264.84292" rx="264.719089" ry="264.84292"></ellipse>
                    <ellipse id="Oval-5-Copy-3" cx="312.280911" cy="279.869469" rx="264.719089" ry="264.84292"></ellipse>
                    <ellipse id="Oval-5-Copy-4" cx="264.719089" cy="279.869469" rx="264.719089" ry="264.84292"></ellipse>
                </g>
                <path d="M364.05,285.2 L417.15,285.2 L417.15,392.75 C387.449852,425.450163 345.000276,441.8 289.8,441.8 C243.299768,441.8 204.375157,426.500153 173.025,395.9 C141.674843,365.299847 126,326.600234 126,279.8 C126,232.999766 141.97484,194.000156 173.925,162.8 C205.87516,131.599844 244.499774,116 289.8,116 C335.100227,116 372.74985,129.199868 402.75,155.6 L374.4,196.1 C362.099939,185.599947 349.725062,178.32502 337.275,174.275 C324.824938,170.22498 310.350083,168.2 293.85,168.2 C262.049841,168.2 235.350108,178.474897 213.75,199.025 C192.149892,219.575103 181.35,246.574833 181.35,280.025 C181.35,313.475167 191.849895,340.324899 212.85,360.575 C233.850105,380.825101 259.274851,390.95 289.125,390.95 C318.975149,390.95 343.9499,384.500064 364.05,371.6 L364.05,285.2 Z" id="G" fill="#232323"></path>
            </g>
            <path d="M723.646146,441.19302 L780.433906,441.19302 L642,126 L585,126 L446.566094,441.19302 L503.353854,441.19302 L613.5,190 L723.646146,441.19302 Z" id="Combined-Shape" fill="#000000"></path>
            <path d="M1312.08005,441.19302 L1368.86781,441.19302 L1230.43391,126 L1173.43391,126 L1035,441.19302 L1091.78776,441.19302 L1201.93391,190 L1312.08005,441.19302 Z" id="Combined-Shape-Copy-2" fill="#000000"></path>
            <path d="M1961.08005,441.19302 L2017.86781,441.19302 L1879.43391,126 L1822.43391,126 L1684,441.19302 L1740.78776,441.19302 L1850.93391,190 L1961.08005,441.19302 Z" id="Combined-Shape-Copy" fill="#000000"></path>
            <path d="M824.175,441 L824.175,126.45 L877.275,126.45 L877.275,390.6 L1020.825,390.6 L1020.825,441 L824.175,441 Z M1556.325,441 L1496.925,441 L1370.475,126.45 L1429.875,126.45 L1526.625,361.35 L1623.375,126.45 L1682.775,126.45 L1556.325,441 Z M2297.475,126.45 L2350.575,126.45 L2350.575,441 L2292.975,441 L2114.775,211.5 L2114.775,441 L2061.675,441 L2061.675,126.45 L2114.775,126.45 L2297.475,361.35 L2297.475,126.45 Z M2556.675,175.05 L2556.675,441 L2503.575,441 L2503.575,175.05 L2408.175,175.05 L2408.175,126.45 L2652.075,126.45 L2652.075,175.05 L2556.675,175.05 Z" id="GALAVANT" fill="#000000"></path>
        </g>
    </g>
</svg>