<?xml version="1.0" encoding="UTF-8"?>
<svg width="2092px" height="573px" viewBox="0 0 2092 573" version="1.1" xmlns="http://www.w3.org/2000/svg" xmlns:xlink="http://www.w3.org/1999/xlink">
    <!-- Generator: Sketch 41.1 (35376) - http://www.bohemiancoding.com/sketch -->
    <title>Artboard 3</title>
    <desc>Created with Sketch.</desc>
    <defs></defs>
    <g id="Wireframes-Desktop" stroke="none" stroke-width="1" fill="none" fill-rule="evenodd">
        <g id="Artboard-3">
            <ellipse id="Oval-5" stroke="#4990E2" stroke-width="5" cx="275.719089" cy="304.84292" rx="264.719089" ry="264.84292"></ellipse>
            <g id="Lines-Copy" transform="translate(50.000000, 170.000000)" stroke="#B0C0D2" stroke-width="5" stroke-linecap="square">
                <path d="M35.5,0.5 L481.5,113.5" id="Line"></path>
                <path d="M17.5,35.5 L421.5,279.5" id="Line-Copy"></path>
                <path d="M4.5,74.5 L195.5,355.5" id="Line-Copy-2"></path>
                <path d="M0.5,99.5 L443.5,243.5" id="Line-Copy-3"></path>
                <path d="M44.5,256.5 L345.5,341.5" id="Line-Copy-4"></path>
                <path d="M35.5,0.5 L481.5,113.5" id="Line-Copy-9"></path>
                <path d="M17.5,35.5 L421.5,279.5" id="Line-Copy-8"></path>
                <path d="M4.5,74.5 L195.5,355.5" id="Line-Copy-7"></path>
                <path d="M0.5,99.5 L443.5,243.5" id="Line-Copy-6"></path>
                <path d="M44.5,256.5 L345.5,341.5" id="Line-Copy-5"></path>
            </g>
            <ellipse id="Oval-5-Copy" stroke="#4990E2" stroke-width="5" cx="311.719089" cy="304.84292" rx="264.719089" ry="264.84292"></ellipse>
            <ellipse id="Oval-5-Copy-2" stroke="#4990E2" stroke-width="5" cx="292.719089" cy="267.84292" rx="264.719089" ry="264.84292"></ellipse>
            <ellipse id="Oval-5-Copy-3" stroke="#4990E2" stroke-width="5" cx="315.719089" cy="282.84292" rx="264.719089" ry="264.84292"></ellipse>
            <ellipse id="Oval-5-Copy-4" stroke="#4990E2" stroke-width="5" cx="267.719089" cy="282.84292" rx="264.719089" ry="264.84292"></ellipse>
            <text id="galavant" font-family="Montserrat-Regular, Montserrat" font-size="450" font-weight="normal" fill="#232323">
                <tspan x="148.375" y="391">galavant</tspan>
            </text>
        </g>
    </g>
</svg>