<?xml version="1.0" encoding="UTF-8" standalone="no"?>
<svg width="103px" height="38px" viewBox="0 0 103 38" version="1.1" xmlns="http://www.w3.org/2000/svg" xmlns:xlink="http://www.w3.org/1999/xlink">
    <!-- Generator: Sketch 40.3 (33839) - http://www.bohemiancoding.com/sketch -->
    <title>G</title>
    <desc>Created with Sketch.</desc>
    <defs></defs>
    <g id="Page-2---Wireframes-with-color-palette" stroke="none" stroke-width="1" fill="none" fill-rule="evenodd">
        <g id="logo" transform="translate(-561.000000, -696.000000)" stroke="#2F2525" stroke-width="3.75" fill="#212121">
            <path d="M614.528722,713.643189 L636.240644,713.26946 L631.022512,718.918304 C621.988927,728.697535 613.376262,735.839327 605.18426,740.343894 C596.992258,744.84846 589.015929,747.167503 581.255032,747.301092 C574.294863,747.420898 571.467535,744.346381 572.772962,738.077449 C574.07839,731.808517 578.85506,724.209734 587.103116,715.28087 C595.351173,706.352007 604.853772,698.656932 615.6112,692.195415 C626.368627,685.733897 635.504463,682.438513 643.018982,682.309165 C647.761752,682.227528 650.658874,683.208758 651.710435,685.252886 C652.761995,687.297015 652.712571,690.450936 651.562159,694.714746 L642.483825,698.636803 C643.587841,695.210638 643.861499,692.650596 643.304808,690.956598 C642.748116,689.262599 640.745157,688.445299 637.295869,688.504672 C631.629183,688.602213 624.672631,691.277289 616.426005,696.529981 C608.179379,701.782672 600.745733,707.992618 594.124845,715.160005 C587.447847,722.388132 583.277285,728.526967 581.613033,733.576693 C579.948782,738.626419 581.765188,741.105655 587.062308,741.014475 C589.834057,740.966765 592.352848,740.684313 594.618757,740.167112 C596.884666,739.649911 599.537815,738.64786 602.578283,737.16093 C605.61875,735.674 608.913975,733.435533 612.464054,730.445463 C616.014134,727.455392 619.921265,723.652272 624.185567,719.035989 L609.31059,719.292033 L614.528722,713.643189 Z" id="G" transform="translate(612.463700, 714.804462) rotate(36.000000) translate(-612.463700, -714.804462) "></path>
        </g>
    </g>
</svg>