<?xml version="1.0" encoding="UTF-8"?>
<svg width="583px" height="583px" viewBox="0 0 583 583" version="1.1" xmlns="http://www.w3.org/2000/svg" xmlns:xlink="http://www.w3.org/1999/xlink">
    <!-- Generator: Sketch 41.1 (35376) - http://www.bohemiancoding.com/sketch -->
    <title>Logo</title>
    <desc>Created with Sketch.</desc>
    <defs></defs>
    <g id="Wireframes-Desktop" stroke="none" stroke-width="1" fill="none" fill-rule="evenodd">
        <g id="Logo">
            <g id="Lines" transform="translate(50.000000, 177.000000)" stroke="#B0C0D2" stroke-width="5" stroke-linecap="square">
                <path d="M35.5,0.5 L481.5,113.5" id="Line"></path>
                <path d="M17.5,35.5 L421.5,279.5" id="Line-Copy"></path>
                <path d="M4.5,74.5 L195.5,355.5" id="Line-Copy-2"></path>
                <path d="M0.5,99.5 L443.5,243.5" id="Line-Copy-3"></path>
                <path d="M44.5,256.5 L345.5,341.5" id="Line-Copy-4"></path>
            </g>
            <g id="Circles" transform="translate(3.000000, 9.000000)" stroke="#4990E2" stroke-width="5">
                <ellipse id="Oval-5" cx="272.22885" cy="301.15708" rx="264.719089" ry="264.84292"></ellipse>
                <ellipse id="Oval-5-Copy" cx="308.52603" cy="301.15708" rx="264.719089" ry="264.84292"></ellipse>
                <ellipse id="Oval-5-Copy-2" cx="289.751627" cy="264.84292" rx="264.719089" ry="264.84292"></ellipse>
                <ellipse id="Oval-5-Copy-3" cx="312.280911" cy="279.869469" rx="264.719089" ry="264.84292"></ellipse>
                <ellipse id="Oval-5-Copy-4" cx="264.719089" cy="279.869469" rx="264.719089" ry="264.84292"></ellipse>
            </g>
            <path d="M366.625,295 L419.725,295 L419.725,402.55 C390.024852,435.250163 347.575276,451.6 292.375,451.6 C245.874767,451.6 206.950157,436.300153 175.6,405.7 C144.249843,375.099847 128.575,336.400234 128.575,289.6 C128.575,242.799766 144.54984,203.800156 176.5,172.6 C208.45016,141.399844 247.074773,125.8 292.375,125.8 C337.675227,125.8 375.32485,138.999868 405.325,165.4 L376.975,205.9 C364.674938,195.399947 352.300062,188.12502 339.85,184.075 C327.399938,180.02498 312.925082,178 296.425,178 C264.624841,178 237.925108,188.274897 216.325,208.825 C194.724892,229.375103 183.925,256.374833 183.925,289.825 C183.925,323.275167 194.424895,350.124899 215.425,370.375 C236.425105,390.625101 261.849851,400.75 291.7,400.75 C321.550149,400.75 346.5249,394.300064 366.625,381.4 L366.625,295 Z" id="G" fill="#232323"></path>
        </g>
    </g>
</svg>