<?xml version="1.0" encoding="UTF-8"?>
<svg width="986px" height="177px" viewBox="0 0 986 177" version="1.1" xmlns="http://www.w3.org/2000/svg" xmlns:xlink="http://www.w3.org/1999/xlink">
    <!-- Generator: Sketch 41.1 (35376) - http://www.bohemiancoding.com/sketch -->
    <title>web logo long</title>
    <desc>Created with Sketch.</desc>
    <defs></defs>
    <g id="Symbols" stroke="none" stroke-width="1" fill="none" fill-rule="evenodd">
        <g id="web-logo-long">
            <path d="M211.533203,133.080078 L307.685547,88.7832031 L211.533203,44.6621094 L211.533203,0.189453125 L394.521484,89.1347656 L211.533203,177.376953 L211.533203,133.080078 Z M182.521484,44.4863281 L86.3691406,88.7832031 L182.521484,132.904297 L182.521484,177.376953 L-0.466796875,88.4316406 L182.521484,0.189453125 L182.521484,44.4863281 Z" id="Combined-Shape" fill="#E6DF6E"></path>
            <path d="M504.680611,125.427734 C504.680611,128.572281 504.578073,131.340808 504.372993,133.733398 C504.167914,136.125989 503.883086,138.233715 503.518501,140.056641 C502.424746,145.069687 500.28284,149.376284 497.09272,152.976562 C491.077065,159.90368 482.805663,163.367188 472.278267,163.367188 C463.391504,163.367188 456.077124,160.974633 450.334907,156.189453 C444.410399,151.267554 440.992464,144.454471 440.081001,135.75 L455.53022,135.75 C456.122671,139.031266 457.102479,141.560538 458.469673,143.337891 C461.659793,147.485047 466.308184,149.558594 472.414986,149.558594 C483.671552,149.558594 489.299751,142.654366 489.299751,128.845703 L489.299751,119.548828 C483.19295,125.792349 476.152005,128.914062 468.176704,128.914062 C459.107649,128.914062 451.679337,125.632845 445.891548,119.070312 C440.058186,112.416633 437.141548,104.099659 437.141548,94.1191406 C437.141548,84.4120608 439.853109,76.1634454 445.276314,69.3730469 C451.109676,62.17249 458.811422,58.5722656 468.381782,58.5722656 C476.767241,58.5722656 483.739828,61.6939792 489.299751,67.9375 L489.299751,60.4179688 L504.680611,60.4179688 L504.680611,125.427734 Z M489.914986,93.8457031 C489.914986,87.3743166 488.183232,82.2018423 484.719673,78.328125 C481.210541,74.3632614 476.721654,72.3808594 471.252876,72.3808594 C465.419514,72.3808594 460.816695,74.5455513 457.444282,78.875 C454.390882,82.7487173 452.864204,87.761688 452.864204,93.9140625 C452.864204,99.9752907 454.390882,104.942689 457.444282,108.816406 C460.771122,113.054709 465.373941,115.173828 471.252876,115.173828 C477.131812,115.173828 481.780203,113.031922 485.198189,108.748047 C488.342736,104.87433 489.914986,99.9069313 489.914986,93.8457031 Z M573.176704,60.4179688 L588.625923,60.4179688 L588.625923,127 L573.176704,127 L573.176704,120.027344 C566.842037,125.951853 560.028954,128.914062 552.737251,128.914062 C543.531476,128.914062 535.920875,125.587273 529.90522,118.933594 C523.935138,112.143195 520.950142,103.666717 520.950142,93.5039062 C520.950142,83.5233876 523.935138,75.2064135 529.90522,68.5527344 C535.875302,61.8990553 543.349185,58.5722656 552.327095,58.5722656 C560.07453,58.5722656 567.02433,61.7623379 573.176704,68.1425781 L573.176704,60.4179688 Z M536.672798,93.5039062 C536.672798,99.8841465 538.381765,105.079407 541.799751,109.089844 C545.308883,113.145854 549.729412,115.173828 555.06147,115.173828 C560.758113,115.173828 565.360932,113.214212 568.870064,109.294922 C572.379196,105.238912 574.133736,100.089224 574.133736,93.8457031 C574.133736,87.6021823 572.379196,82.4524942 568.870064,78.3964844 C565.360932,74.4316208 560.803685,72.4492188 555.198189,72.4492188 C549.911704,72.4492188 545.491175,74.454407 541.93647,78.4648438 C538.427338,82.5208536 536.672798,87.5338243 536.672798,93.5039062 Z M623.420845,11.5410156 L623.420845,127 L608.039986,127 L608.039986,11.5410156 L623.420845,11.5410156 Z M691.985298,60.4179688 L707.434517,60.4179688 L707.434517,127 L691.985298,127 L691.985298,120.027344 C685.650631,125.951853 678.837548,128.914062 671.545845,128.914062 C662.34007,128.914062 654.729469,125.587273 648.713814,118.933594 C642.743732,112.143195 639.758736,103.666717 639.758736,93.5039062 C639.758736,83.5233876 642.743732,75.2064135 648.713814,68.5527344 C654.683896,61.8990553 662.157779,58.5722656 671.135689,58.5722656 C678.883123,58.5722656 685.832924,61.7623379 691.985298,68.1425781 L691.985298,60.4179688 Z M655.481392,93.5039062 C655.481392,99.8841465 657.190359,105.079407 660.608345,109.089844 C664.117477,113.145854 668.538006,115.173828 673.870064,115.173828 C679.566707,115.173828 684.169525,113.214212 687.678657,109.294922 C691.18779,105.238912 692.942329,100.089224 692.942329,93.8457031 C692.942329,87.6021823 691.18779,82.4524942 687.678657,78.3964844 C684.169525,74.4316208 679.612279,72.4492188 674.006782,72.4492188 C668.720298,72.4492188 664.299769,74.454407 660.745064,78.4648438 C657.235932,82.5208536 655.481392,87.5338243 655.481392,93.5039062 Z M735.120064,60.4179688 L752.346626,97.8105469 L769.504829,60.4179688 L786.799751,60.4179688 L752.209907,131.580078 L717.893501,60.4179688 L735.120064,60.4179688 Z M846.272407,60.4179688 L861.721626,60.4179688 L861.721626,127 L846.272407,127 L846.272407,120.027344 C839.93774,125.951853 833.124657,128.914062 825.832954,128.914062 C816.627179,128.914062 809.016578,125.587273 803.000923,118.933594 C797.030841,112.143195 794.045845,103.666717 794.045845,93.5039062 C794.045845,83.5233876 797.030841,75.2064135 803.000923,68.5527344 C808.971005,61.8990553 816.444889,58.5722656 825.422798,58.5722656 C833.170233,58.5722656 840.120033,61.7623379 846.272407,68.1425781 L846.272407,60.4179688 Z M809.768501,93.5039062 C809.768501,99.8841465 811.477468,105.079407 814.895454,109.089844 C818.404586,113.145854 822.825115,115.173828 828.157173,115.173828 C833.853816,115.173828 838.456635,113.214212 841.965767,109.294922 C845.474899,105.238912 847.229439,100.089224 847.229439,93.8457031 C847.229439,87.6021823 845.474899,82.4524942 841.965767,78.3964844 C838.456635,74.4316208 833.899389,72.4492188 828.293892,72.4492188 C823.007407,72.4492188 818.586878,74.454407 815.032173,78.4648438 C811.523041,82.5208536 809.768501,87.5338243 809.768501,93.5039062 Z M881.135689,60.4179688 L896.584907,60.4179688 L896.584907,66.5703125 C901.962538,61.2382546 908.023676,58.5722656 914.768501,58.5722656 C922.515936,58.5722656 928.554287,61.0103923 932.883736,65.8867188 C936.620733,70.0338749 938.489204,76.8013854 938.489204,86.1894531 L938.489204,127 L923.039986,127 L923.039986,89.8125 C923.039986,83.2499672 922.128536,78.7155073 920.305611,76.2089844 C918.528258,73.6568883 915.292613,72.3808594 910.598579,72.3808594 C905.494387,72.3808594 901.871376,74.0670404 899.729439,77.4394531 C897.633074,80.7662927 896.584907,86.5767814 896.584907,94.8710938 L896.584907,127 L881.135689,127 L881.135689,60.4179688 Z M973.762642,74.7734375 L973.762642,127 L958.381782,127 L958.381782,74.7734375 L951.819282,74.7734375 L951.819282,60.4179688 L958.381782,60.4179688 L958.381782,36.0136719 L973.762642,36.0136719 L973.762642,60.4179688 L985.725532,60.4179688 L985.725532,74.7734375 L973.762642,74.7734375 Z" id="galavant" fill="#222222"></path>
        </g>
    </g>
</svg>